<svg width="72" height="72" viewBox="0 0 72 72" fill="none" xmlns="http://www.w3.org/2000/svg">
<path d="M67.9001 3.23996L64.9014 8.4915L64.8368 8.60324L63.1144 11.6201L59.7967 17.4304L53.8219 27.8955H44.5944V36.5052L39.2199 32.0184V22.521H50.6367L53.5826 17.4273L54.8732 15.194V15.2052L56.9445 11.6264L58.6869 8.61447H11.3397V12.8803L19.2065 19.4854L23.5772 23.1552L24.8846 24.2511L35.0115 32.7538L43.6257 39.9862L43.9938 40.2943L46.5328 42.4237L46.5373 42.4282H46.5374C47.1369 42.932 47.4832 43.6752 47.4832 44.4583V69.4906L43.0729 65.791L42.1087 64.9951V64.9804L40.1603 63.3439L33.0415 57.3713L20.4764 46.8282V31.9966L25.8509 36.4978V44.3347L36.4942 53.2654L42.1087 57.978V45.7508L40.5313 44.4256L40.1654 44.1172L31.549 36.8767L21.4244 28.367L20.117 27.2675L16.13 23.9155L6.91093 16.1691C6.31139 15.6654 5.96521 14.9223 5.96521 14.1392V5.89129C5.96521 4.42695 7.15227 3.23996 8.61654 3.23996H67.9001Z" fill="#FFFFFF"/>
</svg>
